<svg width="575.658" height="462.257" viewBox="0 0 152.309 122.305" xml:space="preserve" xmlns="http://www.w3.org/2000/svg"><path style="fill:#fff" d="M20.5 120.892c-4.25-1.59-8.271-4.85-10.9-7.688-3.362-3.633-7.35-11.362-8.853-18.408-.81-3.797-.99-10.144-.398-14.12 2.605-17.523 16.665-33.1 37.342-41.368 3.392-1.356 6.929-2.418 12.14-3.645 13.363-3.145 21.02-6.53 27.72-12.258 1.13-.966 4.585-4.222 7.675-7.234 4.824-4.704 8.088-7.614 10.19-9.086.296-.208.596-.833.703-1.465.103-.606.564-1.733 1.027-2.505.687-1.148 1.153-1.566 2.56-2.298 1.598-.83 1.856-.885 3.647-.774 1.47.092 2.299.312 3.49.926 1.52.784 1.633.8 4.324.664 4.656-.238 8.348.373 17.114 2.833 2.546.714 5.748 1.607 7.115 1.984 11.046 3.047 17.405 9.777 16.884 17.869-.15 2.32-.875 4.758-1.85 6.218-.292.436-1.122 1.389-1.845 2.116-.723.728-1.875 2.095-2.561 3.038-1.49 2.048-3.708 3.653-6.272 4.538-1.72.594-2.16.626-8.43.627-8.771 0-8.433-.191-9.28 5.268-1.623 10.489-4.65 16.138-13.622 25.432-4.526 4.689-7.114 7.868-9.354 11.489-2.58 4.17-5.51 10.476-6.873 14.79-1.31 4.144-1.86 9.655-1.2 12.03.397 1.426 1.842 2.93 3.213 3.339 1.77.529 2.964 1.224 3.87 2.257.696.792.836 1.17.836 2.256 0 1.08-.14 1.464-.818 2.236-.45.513-1.254 1.06-1.786 1.218-.612.18-3.27.255-7.23.202l-6.262-.084-1.12-.794c-1.34-.951-2.447-2.825-3.043-5.148-.24-.938-.596-1.95-.791-2.248-.672-1.027-1.175-3.687-1.177-6.22 0-1.388-.077-3.325-.17-4.304l-.168-1.78-1.616.942c-.89.517-2.83 1.526-4.311 2.24-2.626 1.267-2.718 1.342-3.532 2.869-.46.862-1.42 2.293-2.133 3.178-.713.886-1.297 1.66-1.297 1.72 0 .06.773.193 1.717.294 5.685.609 9.198 5.54 6.058 8.503-.501.472-1.306.933-1.79 1.023-.481.09-4.913.117-9.847.058-9.56-.114-10.39-.216-12.861-1.592l-.981-.545-2.194 1.034c-5.524 2.602-18.618 2.035-23.06.373z"/></svg>